<svg class="i-basket-color" viewBox="0 0 18 18" width="100%" height="100%">
  <path fill-rule="evenodd" clip-rule="evenodd"
    d="M0 0.5C0 0.223858 0.223858 0 0.5 0H2.71277C2.95742 0 3.16614 0.177031 3.20606 0.4184L4.83949 10.2929C5.03812 11.3857 5.96244 12.1739 7.03617 12.1739H15.4787C15.7549 12.1739 15.9787 12.3978 15.9787 12.6739C15.9787 12.9501 15.7549 13.1739 15.4787 13.1739H7.03617C5.45569 13.1739 4.134 12.0159 3.85474 10.467L3.85346 10.4599L3.85351 10.4599L2.28868 1H0.5C0.223858 1 0 0.776142 0 0.5Z"
    transform="translate(0 0.5)" fill="black"></path>
  <path
    d="M0 0.5C0 0.223858 0.223858 0 0.5 0H13.7766C13.9266 0 14.0687 0.067349 14.1636 0.183469C14.2586 0.29959 14.2964 0.452211 14.2667 0.599233L13.4498 4.63293C13.099 6.38421 11.6188 7.66142 9.89645 7.7814L9.89357 7.7816L1.72335 8.30333L0 0.5Z"
    transform="translate(2.72339 3.28259)" fill="black"></path>
  <path fill-rule="evenodd" clip-rule="evenodd"
    d="M0 1.71739C0 0.779094 0.747223 0 1.69149 0C2.63576 0 3.38298 0.779094 3.38298 1.71739C3.38298 2.65569 2.63576 3.43478 1.69149 3.43478C0.747223 3.43478 0 2.65569 0 1.71739ZM1.69149 1C1.31967 1 1 1.311 1 1.71739C1 2.12379 1.31967 2.43478 1.69149 2.43478C2.06331 2.43478 2.38298 2.12379 2.38298 1.71739C2.38298 1.311 2.06331 1 1.69149 1Z"
    transform="translate(4.08508 14.0652)" fill="black"></path>
  <path fill-rule="evenodd" clip-rule="evenodd"
    d="M0 1.71739C0 0.779094 0.747223 0 1.69149 0C2.63576 0 3.38298 0.779094 3.38298 1.71739C3.38298 2.65569 2.63576 3.43478 1.69149 3.43478C0.747223 3.43478 0 2.65569 0 1.71739ZM1.69149 1C1.31967 1 1 1.311 1 1.71739C1 2.12379 1.31967 2.43478 1.69149 2.43478C2.06331 2.43478 2.38298 2.12379 2.38298 1.71739C2.38298 1.311 2.06331 1 1.69149 1Z"
    transform="translate(12.2554 14.0652)" fill="black"></path>
</svg>
