<svg id="flag-eng" class="i-flag-eng" viewBox="0 0 21 14" width="100%" height="100%">
  <path
    d="M20.6379 14H0.362085C0.162134 14 0 13.835 0 13.6316V0.368438C0 0.164979 0.162134 0 0.362085 0H20.6379C20.8379 0 21 0.164979 21 0.368438V13.6316C21 13.835 20.8378 14 20.6379 14Z"
    fill="#41479B"></path>
  <path
    d="M20.9999 0.368438C20.9999 0.164979 20.8378 0 20.6378 0H19.0179L12.3103 4.47179V0H8.68958V4.47179L1.98195 0H0.362085C0.162134 0 0 0.164979 0 0.368438V1.32129L5.75484 5.15788H0V8.84208H5.75484L0 12.6787V13.6316C0 13.835 0.162134 14 0.362085 14H1.98199L8.68966 9.52821V14H12.3103V9.52821L19.018 14H20.6379C20.8379 14 21 13.835 21 13.6316V12.6787L15.2452 8.84212H20.9999V5.15792H15.2451L20.9999 1.32129V0.368438Z"
    fill="#F5F5F5"></path>
  <path d="M20.9591 5.88508H11.5636V0H9.39543V5.88508H0V8.09196H9.39543V13.977H11.5636V8.09196H20.9591V5.88508Z"
    transform="translate(0 0.0115013)" fill="#FF4B55"></path>
  <path
    d="M7.31512 0L0 4.83321C0.0255848 5.01083 0.169474 5.14946 0.351105 5.14946H0.848842L8.64258 4.16667e-05H7.31512V0Z"
    transform="translate(0.0102539 8.83908)" fill="#FF4B55"></path>
  <path d="M1.32746 0H0L7.7824 5.14183C7.96379 5.12217 8.10694 4.97142 8.10694 4.78158V4.47917L1.32746 0Z"
    transform="translate(12.8522 8.83908)" fill="#FF4B55"></path>
  <path d="M0 0.738L6.62253 5.11358H7.94999L0.210532 0C0.0869064 0.0584583 0 0.184083 0 0.331958V0.738Z"
    transform="translate(0 0.0473747)" fill="#FF4B55"></path>
  <path d="M1.32746 5.14942L8.66015 0.304542C8.62969 0.132792 8.48887 0 8.31133 0H7.79362L0 5.14942H1.32746Z"
    transform="translate(12.2864 0.0115433)" fill="#FF4B55"></path>
</svg>
