<svg class="ico-vk" viewBox="0 0 22 14" width="100%" height="100%">
  <g fill="none">
    <path fill-rule="evenodd" clip-rule="evenodd"
      d="M19.5815 8.99344C19.5815 8.99344 21.3611 10.7851 21.7997 11.6159C21.8123 11.6336 21.817 11.6496 21.8217 11.656C21.9994 11.9608 22.0449 12.2014 21.9553 12.3778C21.8076 12.6713 21.3045 12.8189 21.1331 12.8317C21.1331 12.8317 18.0786 12.8317 17.9906 12.8317C17.7705 12.8317 17.3146 12.774 16.7612 12.3842C16.3368 12.0827 15.917 11.5838 15.5083 11.0978C14.8983 10.3761 14.3701 9.75051 13.8387 9.75051C13.7711 9.75051 13.7035 9.76174 13.6406 9.78419C13.2366 9.91572 12.7241 10.5012 12.7241 12.065C12.7241 12.5542 12.3468 12.8333 12.0796 12.8333C12.0796 12.8333 10.7087 12.8333 10.6396 12.8333C10.1491 12.8333 7.59445 12.6585 5.33224 10.2221C2.55595 7.2387 0.0626455 1.2543 0.0406365 1.20137C-0.116571 0.814815 0.208848 0.604695 0.562565 0.604695H3.73815C4.16419 0.604695 4.30096 0.867746 4.39842 1.10353C4.50847 1.37139 4.9235 2.45246 5.60263 3.66827C6.7078 5.64596 7.38851 6.45115 7.93087 6.45115C8.03149 6.45115 8.12895 6.42388 8.22013 6.37256C8.92914 5.97317 8.79709 3.39399 8.76564 2.86148C8.76564 2.76043 8.76407 1.70822 8.4025 1.20297C8.14153 0.83727 7.69978 0.697725 7.43253 0.644794C7.50327 0.540537 7.65576 0.378536 7.8507 0.282298C8.33647 0.0352873 9.21211 0 10.083 0H10.5672C11.5121 0.0128317 11.7573 0.0753864 12.0984 0.163605C12.7886 0.332021 12.8027 0.789151 12.7414 2.345C12.7241 2.78769 12.7053 3.28973 12.7053 3.87839C12.7053 4.0051 12.7005 4.14465 12.7005 4.28901C12.6785 5.08457 12.6534 5.9844 13.2036 6.35331C13.2759 6.39822 13.3561 6.42388 13.441 6.42388C13.6328 6.42388 14.2066 6.42388 15.7614 3.70195C16.4452 2.50058 16.9719 1.08268 17.008 0.976815C17.0395 0.919073 17.1322 0.749052 17.2407 0.68329C17.3287 0.630359 17.4419 0.620735 17.5017 0.620735H21.2353C21.6441 0.620735 21.9208 0.68329 21.9726 0.842082C22.0622 1.09711 21.9553 1.87504 20.2496 4.22645C19.9604 4.61621 19.7104 4.95626 19.4903 5.25299C17.9434 7.3189 17.9434 7.42476 19.5815 8.99344Z"
      transform="translate(0 0.583008)" fill="#D8DADE"></path>
  </g>
</svg>
