<svg class="ico-inst" viewBox="0 0 23 22" width="100%" height="100%">
  <g fill="none">
    <path fill-rule="evenodd" clip-rule="evenodd" d="M19.7786 15.4402C19.7786 17.8365 17.836 19.7791 15.4397 19.7791H6.55085C4.15455 19.7791 2.21191 17.8365 2.21191 15.4402V6.55139C2.21191 4.15509 4.15455 2.2124 6.55085 2.2124H15.4397C17.836 2.2124 19.7786 4.15509 19.7786 6.55139V15.4402ZM15.4401 0H6.55131C2.93882 0 0 2.93882 0 6.55131V15.4401C0 19.0524 2.93882 21.9914 6.55131 21.9914H15.4401C19.0524 21.9914 21.9914 19.0524 21.9914 15.4401V6.55131C21.9914 2.93882 19.0524 0 15.4401 0Z" transform="translate(0.75)" fill="#D8DADE"></path>
    <path fill-rule="evenodd" clip-rule="evenodd" d="M5.68748 9.16321C3.76801 9.16321 2.21191 7.60734 2.21191 5.6879C2.21191 3.76842 3.76801 2.2124 5.68748 2.2124C7.607 2.2124 9.16284 3.76842 9.16284 5.6879C9.16284 7.60734 7.607 9.16321 5.68748 9.16321ZM5.68787 0C2.55165 0 0 2.55165 0 5.68787C0 8.8239 2.55165 11.3755 5.68787 11.3755C8.8241 11.3755 11.3755 8.8241 11.3755 5.68787C11.3755 2.55165 8.8241 0 5.68787 0Z" transform="translate(6.05762 5.30811)" fill="#D8DADE"></path>
    <path fill-rule="evenodd" clip-rule="evenodd" d="M1.36295 0C0.610363 0 0 0.610163 0 1.36295C0 2.11554 0.610363 2.72585 1.36295 2.72585C2.11569 2.72585 2.72585 2.11554 2.72585 1.36295C2.72585 0.610163 2.11569 0 1.36295 0Z" transform="translate(16.0807 3.98779)" fill="#D8DADE"></path>
  </g>
</svg>
