<svg class="ico-ytb" viewBox="0 0 22 22" width="100%" height="100%">
  <path fill="#D8DADE" fill-rule="nonzero" d="M21.772 6.455S22 8.309 22 10.164v1.709c0 1.818-.228 3.672-.228 3.672s-.227 1.564-.872 2.255c-.834.873-1.783.91-2.2.945C15.628 19 11 19 11 19s-5.728-.036-7.472-.218c-.494-.11-1.594-.073-2.428-.982-.645-.69-.872-2.254-.872-2.254S0 13.727 0 11.873v-1.71C0 8.31.228 6.456.228 6.456S.418 4.89 1.1 4.2c.834-.873 1.783-.91 2.2-.945C6.372 3.036 11 3 11 3s4.628.036 7.7.255c.417.036 1.366.036 2.2.945.645.69.872 2.255.872 2.255zm-13.427.872v7.891l7.207-3.854-7.207-4.037z"></path>
</svg>
