<svg id="logo" class="i-logo" width="94" height="80" viewBox="0 0 94 80" fill="none" xmlns="http://www.w3.org/2000/svg">
<path fill-rule="evenodd" clip-rule="evenodd" d="M23.3642 42.1725L25.7538 44.4925C25.945 44.6782 25.9752 44.9741 25.825 45.1944C24.5911 47.0087 22.3434 48.1358 19.9582 48.1358C16.9412 48.1358 13.6941 46.2021 13.6941 41.9571C13.6941 37.9292 16.8442 35.7561 19.8075 35.7561C22.5319 35.7561 24.8607 37.4377 25.8853 40.1462C25.9801 40.3988 25.8776 40.6826 25.6426 40.8158L23.3209 42.1347C23.3357 42.1462 23.3505 42.1593 23.3642 42.1725ZM32.4541 48.0815C28.4513 48.0815 26.3571 44.8925 26.3571 41.7424C26.3571 40.1561 26.8826 38.6848 27.8365 37.5988C29.1237 36.1341 31.0744 35.4903 33.4053 35.773V32.1391C33.4053 31.8361 33.6502 31.5911 33.9533 31.5911H35.1839C37.8113 14.9232 47.6272 0.547835 47.6272 0.547835L12.2333 35.9769C12.7549 37.0558 13.0716 38.3018 13.1302 39.6837C13.1308 41.2547 12.8179 42.6443 12.2426 43.8119L39.6031 71.2673C39.6031 71.2673 35.9401 62.498 34.8459 47.7363C34.1418 47.9615 33.3483 48.0815 32.4541 48.0815Z" fill="#00722D"/>
<path fill-rule="evenodd" clip-rule="evenodd" d="M83.033 44.3728L80.6905 33.5493L80.0302 32.8912V44.8862C80.0302 47.1219 78.5212 48.1224 77.0259 48.1224C75.7026 48.1224 74.4352 47.3487 73.7963 46.1509L72.3201 43.3788V47.2057C72.3201 47.5087 72.0746 47.7536 71.7722 47.7536H67.0861C66.7831 47.7536 66.5382 47.5087 66.5382 47.2057V34.6457C66.5382 32.6621 68.0905 31.6243 69.6237 31.6243C71.0582 31.6243 72.3316 32.4419 72.9481 33.7575L74.2242 36.4249V32.3027C74.2242 31.9997 74.4692 31.7547 74.7722 31.7547H78.8894L74.2324 27.1147C74.1716 27.1498 74.1048 27.1761 74.0292 27.1761H72.9804C72.7535 27.1761 72.5694 26.992 72.5694 26.7652V25.4572L71.096 23.9893L70.0598 26.9027C70.0012 27.0671 69.8467 27.1761 69.6724 27.1761H68.4785C68.3048 27.1761 68.1497 27.0671 68.0911 26.9038L66.1316 21.4265C66.0861 21.3005 66.1053 21.1608 66.1826 21.0512C66.2598 20.9421 66.3848 20.8769 66.5185 20.8769H67.7163C67.8916 20.8769 68.0478 20.9882 68.1048 21.1547L69.0993 24.0528L69.6083 22.5076L55.4527 8.40241C55.4527 8.40241 58.0308 13.5619 59.5481 22.8024L59.5771 22.6906C59.6242 22.5098 59.7881 22.3838 59.9744 22.3838H60.987C61.1749 22.3838 61.3393 22.512 61.3853 22.6945L61.6741 23.8336L62.0111 22.6797C62.062 22.5043 62.2231 22.3838 62.405 22.3838H63.4396C63.5711 22.3838 63.6944 22.4462 63.7722 22.5531C63.8494 22.6588 63.8708 22.7953 63.8313 22.9208L62.5557 26.8912C62.5009 27.061 62.3426 27.1761 62.1639 27.1761H61.1568C60.9705 27.1761 60.8078 27.0512 60.7601 26.8715L60.4779 25.8145L60.1996 26.8704C60.1853 26.9257 60.1563 26.9734 60.1228 27.0167C60.5349 30.7778 60.7415 35.0495 60.5661 39.792H65.0439C65.3464 39.792 65.5919 40.0369 65.5919 40.3399V43.2216C65.5919 43.5246 65.3464 43.7695 65.0439 43.7695H60.2911C58.2631 64.0545 47.1415 79.6112 47.1415 79.6112L83.033 44.3728Z" fill="#00722D"/>
<path fill-rule="evenodd" clip-rule="evenodd" d="M31.4855 41.8803C31.4855 42.3625 31.7814 42.8617 32.2773 42.8617C32.9441 42.8557 33.4055 42.3773 33.4055 41.699V40.8853C33.3918 40.8836 33.377 40.8814 33.3633 40.8792C33.1562 40.8414 32.9594 40.8222 32.7803 40.8222C31.5786 40.8222 31.4855 41.6321 31.4855 41.8803Z" fill="#222222"/>
<path fill-rule="evenodd" clip-rule="evenodd" d="M47.5 0.5C47.5 0.5 26.357 33.2922 39.5 71C25 57 8.37791 39.8589 8.37791 39.8589L47.5 0.5Z" fill="#00722D"/>
<path fill-rule="evenodd" clip-rule="evenodd" d="M0 47.2057V32.3027H5.36603C9.74192 32.3345 12.4016 35.4736 12.5836 39.7071C12.5836 44.1334 9.91781 47.2287 5.36603 47.2287V42.8709C8.25534 42.9465 9.06904 36.7082 4.71014 36.7082V47.2057H0Z" fill="#F3F3F3"/>
<path fill-rule="evenodd" clip-rule="evenodd" d="M25.3724 40.3398L20.0064 43.3864L18.7872 41.1836L20.8261 40.0116C19.8716 38.8028 17.7407 40.0439 18.1012 42.0691C18.4174 43.8401 20.7472 45.1464 22.9829 42.5655L25.3724 44.8861C22.4623 49.1644 14.242 48.4855 14.242 41.9568C14.242 35.4943 22.9998 34.0647 25.3724 40.3398Z" fill="#F3F3F3"/>
<path fill-rule="evenodd" clip-rule="evenodd" d="M33.9534 32.1388H38.1709V40.8319C38.1709 44.7772 36.7561 47.5339 32.4542 47.5339C24.9468 47.5339 24.8416 35.1624 33.4613 36.3328V40.3399C30.1671 39.7437 30.4547 43.4259 32.2893 43.4095C33.2695 43.4007 33.9534 42.6604 33.9534 41.6988V32.1388Z" fill="#F3F3F3"/>
<path fill-rule="evenodd" clip-rule="evenodd" d="M46.2864 47.2057C42.6552 47.8698 39.4212 45.6161 39.4212 41.8632C39.4212 38.3328 41.9007 36.3328 45.3028 36.3328C48.7598 36.3328 51.3248 38.9657 51.3248 42.4019V47.2057H46.9659V41.8397C46.9659 40.8101 46.2113 40.2846 45.2557 40.2928C42.79 40.3142 43.4985 44.4758 46.2864 43.0813V47.2057Z" fill="#F3F3F3"/>
<path fill-rule="evenodd" clip-rule="evenodd" d="M52.5814 47.2055H57.0806V32.3025H52.5814V47.2055Z" fill="#F3F3F3"/>
<path fill-rule="evenodd" clip-rule="evenodd" d="M59.1633 43.2219H65.0438V40.3397H59.1633V43.2219Z" fill="#F3F3F3"/>
<path fill-rule="evenodd" clip-rule="evenodd" d="M67.0859 47.2057V34.6457C67.0859 31.6786 71.1845 31.2846 72.4519 33.9898L74.7719 38.8397V32.3027H79.482V44.8862C79.482 48.2052 75.5867 48.3432 74.2798 45.8928L71.7724 41.1838V47.2057H67.0859Z" fill="#F3F3F3"/>
<path fill-rule="evenodd" clip-rule="evenodd" d="M80.9814 32.3025H85.6444L87.1671 41.3475L88.6663 32.3025H93.5414L90.5178 45.542C89.9239 48.1414 84.4049 48.1173 83.8165 45.4012L80.9814 32.3025Z" fill="#F3F3F3"/>
<path fill-rule="evenodd" clip-rule="evenodd" d="M93.5574 26.7653H92.5097V24.7417C92.5097 24.3132 92.4872 24.037 92.4423 23.9121C92.2089 23.2721 91.2598 23.4546 91.0615 24.0584C91.0072 24.2228 90.9793 24.5264 90.9793 24.9702V26.7653H89.9327V22.7949H90.9031V23.3773C91.2511 22.9329 91.6889 22.711 92.2187 22.711C92.8072 22.711 93.3563 22.9801 93.4998 23.5959C93.5393 23.7603 93.5574 23.9943 93.5574 24.3006V26.7653ZM85.1618 24.7877C85.1618 25.3976 85.4429 26.0075 86.1311 26.0075C86.8226 26.0075 87.0966 25.3883 87.0966 24.7801C87.0966 24.1762 86.8127 23.5675 86.1311 23.5675C85.4429 23.5675 85.1618 24.1779 85.1618 24.7877ZM84.0818 24.7318C84.0818 23.5433 84.9656 22.711 86.125 22.711C87.3311 22.711 88.1755 23.5757 88.1755 24.7762C88.1755 25.9658 87.336 26.865 86.1322 26.865C84.8204 26.865 84.0818 25.9784 84.0818 24.7318ZM81.2544 26.7653H82.302V22.7949H81.2544V26.7653ZM81.2544 22.259H82.302V21.288H81.2544V22.259ZM75.6779 25.6486L76.7344 25.488C76.7782 25.6902 76.8692 25.8442 77.0072 25.9494C77.2834 26.1631 77.9157 26.1598 78.1952 25.9576C78.5645 25.6765 78.2346 25.4162 77.9075 25.3395C77.0598 25.1527 76.5223 24.9817 76.2955 24.8272C75.6746 24.4025 75.6779 23.5412 76.2313 23.0622C76.7612 22.6053 78.1382 22.597 78.7059 22.9773C78.9689 23.1559 79.1508 23.4184 79.2516 23.7658L78.2637 23.9499C78.0686 23.2305 76.7952 23.3981 76.7952 23.797C76.7952 24.1105 77.6653 24.2349 77.884 24.2842C78.5963 24.4458 79.3886 24.6612 79.3886 25.5335C79.3886 26.5159 78.4144 26.865 77.582 26.865C76.7185 26.865 75.9135 26.5559 75.6779 25.6486ZM72.9804 26.7653H74.0292V22.7949H72.9804V26.7653ZM72.9804 22.259H74.0292V21.288H72.9804V22.259ZM68.4785 26.7653L66.5185 21.288H67.7163L69.1075 25.3417L70.4429 21.288H71.6204L69.6724 26.7653H68.4785ZM58.7809 26.7653L57.5256 22.7949H58.547L59.2894 25.397L59.9744 22.7949H60.987L61.645 25.397L62.405 22.7949H63.4396L62.164 26.7653H61.1568L60.4752 24.2118L59.8023 26.7653H58.7809ZM55.2007 24.4475C55.1694 23.1784 53.6264 23.2201 53.6374 24.4475H55.2007ZM55.1409 25.511L56.1875 25.6864C55.5026 27.6491 52.5393 27.1877 52.5393 24.8168C52.5393 21.9494 56.302 21.9116 56.2418 25.0896H53.6176C53.6445 26.1779 54.8626 26.4721 55.1409 25.511ZM46.3815 26.7653V21.288H47.4549L49.7092 24.9587V21.288H50.7344V26.7653H49.6264L47.4067 23.1647V26.7653H46.3815Z" fill="#F3F3F3"/>
</svg>
