<svg xmlns="http://www.w3.org/2000/svg">
    <symbol id="cart" class="is-coloring" viewBox="0 0 18 18">
        <!--<g fill="none">-->
            <path fill-rule="evenodd" clip-rule="evenodd" d="M0 0.5C0 0.223858 0.223858 0 0.5 0H2.71277C2.95742 0 3.16614 0.177031 3.20606 0.4184L4.83949 10.2929C5.03812 11.3857 5.96244 12.1739 7.03617 12.1739H15.4787C15.7549 12.1739 15.9787 12.3978 15.9787 12.6739C15.9787 12.9501 15.7549 13.1739 15.4787 13.1739H7.03617C5.45569 13.1739 4.134 12.0159 3.85474 10.467L3.85346 10.4599L3.85351 10.4599L2.28868 1H0.5C0.223858 1 0 0.776142 0 0.5Z" transform="translate(0.5 0.5)" fill="black"></path>
            <path fill-rule="evenodd" clip-rule="evenodd" d="M0 0.5C0 0.223858 0.223858 0 0.5 0H13.7766C13.9266 0 14.0687 0.067349 14.1636 0.183469C14.2586 0.29959 14.2964 0.452211 14.2667 0.599233L13.4498 4.63293C13.4498 4.63309 13.4499 4.63277 13.4498 4.63293C13.099 6.38421 11.6188 7.66142 9.89645 7.7814L9.89357 7.7816L1.72335 8.30333C1.44777 8.32093 1.2101 8.11179 1.19251 7.83621C1.17491 7.56063 1.38404 7.32296 1.65962 7.30536L9.82695 6.78382C9.82742 6.78378 9.82789 6.78375 9.82835 6.78372C11.101 6.69442 12.2073 5.7455 12.4693 4.43663L13.1652 1H0.5C0.223858 1 0 0.776142 0 0.5Z" transform="translate(3.22339 3.28259)" fill="black"></path>
            <path fill-rule="evenodd" clip-rule="evenodd" d="M0 1.71739C0 0.779094 0.747223 0 1.69149 0C2.63576 0 3.38298 0.779094 3.38298 1.71739C3.38298 2.65569 2.63576 3.43478 1.69149 3.43478C0.747223 3.43478 0 2.65569 0 1.71739ZM1.69149 1C1.31967 1 1 1.311 1 1.71739C1 2.12379 1.31967 2.43478 1.69149 2.43478C2.06331 2.43478 2.38298 2.12379 2.38298 1.71739C2.38298 1.311 2.06331 1 1.69149 1Z" transform="translate(4.58508 14.0652)" fill="black"></path>
            <path fill-rule="evenodd" clip-rule="evenodd" d="M0 1.71739C0 0.779094 0.747223 0 1.69149 0C2.63576 0 3.38298 0.779094 3.38298 1.71739C3.38298 2.65569 2.63576 3.43478 1.69149 3.43478C0.747223 3.43478 0 2.65569 0 1.71739ZM1.69149 1C1.31967 1 1 1.311 1 1.71739C1 2.12379 1.31967 2.43478 1.69149 2.43478C2.06331 2.43478 2.38298 2.12379 2.38298 1.71739C2.38298 1.311 2.06331 1 1.69149 1Z" transform="translate(12.7554 14.0652)" fill="black"></path>
        <!--</g>-->
    </symbol>
    <symbol id="cart-full" class="is-coloring" viewBox="0 0 18 18">
        <!--<g fill="none">-->
            <path fill-rule="evenodd" clip-rule="evenodd" d="M0 0.5C0 0.223858 0.223858 0 0.5 0H2.71277C2.95742 0 3.16614 0.177031 3.20606 0.4184L4.83949 10.2929C5.03812 11.3857 5.96244 12.1739 7.03617 12.1739H15.4787C15.7549 12.1739 15.9787 12.3978 15.9787 12.6739C15.9787 12.9501 15.7549 13.1739 15.4787 13.1739H7.03617C5.45569 13.1739 4.134 12.0159 3.85474 10.467L3.85346 10.4599L3.85351 10.4599L2.28868 1H0.5C0.223858 1 0 0.776142 0 0.5Z" transform="translate(0 0.5)" fill="black"></path>
            <path d="M0 0.5C0 0.223858 0.223858 0 0.5 0H13.7766C13.9266 0 14.0687 0.067349 14.1636 0.183469C14.2586 0.29959 14.2964 0.452211 14.2667 0.599233L13.4498 4.63293C13.099 6.38421 11.6188 7.66142 9.89645 7.7814L9.89357 7.7816L1.72335 8.30333L0 0.5Z" transform="translate(2.72339 3.28259)" fill="black"></path>
            <path fill-rule="evenodd" clip-rule="evenodd" d="M0 1.71739C0 0.779094 0.747223 0 1.69149 0C2.63576 0 3.38298 0.779094 3.38298 1.71739C3.38298 2.65569 2.63576 3.43478 1.69149 3.43478C0.747223 3.43478 0 2.65569 0 1.71739ZM1.69149 1C1.31967 1 1 1.311 1 1.71739C1 2.12379 1.31967 2.43478 1.69149 2.43478C2.06331 2.43478 2.38298 2.12379 2.38298 1.71739C2.38298 1.311 2.06331 1 1.69149 1Z" transform="translate(4.08508 14.0652)" fill="black"></path>
            <path fill-rule="evenodd" clip-rule="evenodd" d="M0 1.71739C0 0.779094 0.747223 0 1.69149 0C2.63576 0 3.38298 0.779094 3.38298 1.71739C3.38298 2.65569 2.63576 3.43478 1.69149 3.43478C0.747223 3.43478 0 2.65569 0 1.71739ZM1.69149 1C1.31967 1 1 1.311 1 1.71739C1 2.12379 1.31967 2.43478 1.69149 2.43478C2.06331 2.43478 2.38298 2.12379 2.38298 1.71739C2.38298 1.311 2.06331 1 1.69149 1Z" transform="translate(12.2554 14.0652)" fill="black"></path>
        <!--</g>-->
    </symbol>
    <symbol id="cart-btn" class="is-coloring-s" viewBox="0 0 18 18">
        <g fill="none">
            <path d="M14.9787 12.1739H6.53617C5.20851 12.1739 4.08511 11.2 3.84681 9.87826L2.21277 0H0" transform="translate(1 1)" stroke="inherit" stroke-linecap="round" stroke-linejoin="round"></path>
            <path d="M0 0H13.2766L12.4596 4.03478C12.1532 5.56522 10.8596 6.67826 9.3617 6.78261L1.19149 7.30435" transform="translate(3.72339 3.78259)" stroke="inherit" stroke-linecap="round" stroke-linejoin="round"></path>
            <path fill-rule="evenodd" clip-rule="evenodd" d="M1.19149 2.43478C1.84953 2.43478 2.38298 1.88974 2.38298 1.21739C2.38298 0.545045 1.84953 0 1.19149 0C0.533448 0 0 0.545045 0 1.21739C0 1.88974 0.533448 2.43478 1.19149 2.43478Z" transform="translate(5.08508 14.5652)" stroke="inherit" stroke-linecap="round" stroke-linejoin="round"></path>
            <path fill-rule="evenodd" clip-rule="evenodd" d="M1.19149 2.43478C1.84953 2.43478 2.38298 1.88974 2.38298 1.21739C2.38298 0.545045 1.84953 0 1.19149 0C0.533448 0 0 0.545045 0 1.21739C0 1.88974 0.533448 2.43478 1.19149 2.43478Z" transform="translate(13.2554 14.5652)" stroke="inherit" stroke-linecap="round" stroke-linejoin="round"></path>
        </g>
    </symbol>
    <symbol id="mm-close" class="is-coloring-s" viewBox="0 0 22 23">
        <rect width="30" height="1" y="22" fill="#000" transform="rotate(-45 0 22)"></rect>
        <rect width="30" height="1" x=".707" y="1" fill="#000" transform="rotate(45 .707 1)"></rect>
    </symbol>

    <symbol id="loupe" class="is-coloring-s" viewBox="0 0 18 18">
        <g fill="none">
            <path fill-rule="evenodd" clip-rule="evenodd" d="M6.43478 12.8696C9.98861 12.8696 12.8696 9.98861 12.8696 6.43478C12.8696 2.88095 9.98861 0 6.43478 0C2.88095 0 0 2.88095 0 6.43478C0 9.98861 2.88095 12.8696 6.43478 12.8696Z" transform="translate(1.04517 1)" stroke="white" stroke-linecap="round" stroke-linejoin="round"></path>
            <path d="M4.86957 4.86957L0 0" transform="translate(12.1304 12.1304)" stroke="white" stroke-linecap="round" stroke-linejoin="round"></path>
        </g>
    </symbol>
    <symbol id="flag-ru" viewBox="0 0 21 14">
        <path d="M0 4.65904V0.367833C0 0.164708 0.161819 0 0.36138 0H20.5977C20.7973 0 20.9591 0.164708 20.9591 0.367833L20.9591 4.65904H0Z" transform="translate(0 0.0115013)" fill="#F5F5F5"></path>
        <path d="M20.5977 4.659H0.36138C0.161819 4.659 0 4.49429 0 4.29117V0H20.9591V4.29117C20.9591 4.49433 20.7972 4.659 20.5977 4.659Z" transform="translate(0 9.32954)" fill="#FF4B55"></path>
        <path d="M0 0H20.9591V4.65875H0V0Z" transform="translate(0 4.67046)" fill="#41479B"></path>
    </symbol>
    <symbol id="flag-en" viewBox="0 0 21 14">
        <path d="M20.6379 14H0.362085C0.162134 14 0 13.835 0 13.6316V0.368438C0 0.164979 0.162134 0 0.362085 0H20.6379C20.8379 0 21 0.164979 21 0.368438V13.6316C21 13.835 20.8378 14 20.6379 14Z" fill="#41479B"></path>
        <path d="M20.9999 0.368438C20.9999 0.164979 20.8378 0 20.6378 0H19.0179L12.3103 4.47179V0H8.68958V4.47179L1.98195 0H0.362085C0.162134 0 0 0.164979 0 0.368438V1.32129L5.75484 5.15788H0V8.84208H5.75484L0 12.6787V13.6316C0 13.835 0.162134 14 0.362085 14H1.98199L8.68966 9.52821V14H12.3103V9.52821L19.018 14H20.6379C20.8379 14 21 13.835 21 13.6316V12.6787L15.2452 8.84212H20.9999V5.15792H15.2451L20.9999 1.32129V0.368438Z" fill="#F5F5F5"></path>
        <path d="M20.9591 5.88508H11.5636V0H9.39543V5.88508H0V8.09196H9.39543V13.977H11.5636V8.09196H20.9591V5.88508Z" transform="translate(0 0.0115013)" fill="#FF4B55"></path>
        <path d="M7.31512 0L0 4.83321C0.0255848 5.01083 0.169474 5.14946 0.351105 5.14946H0.848842L8.64258 4.16667e-05H7.31512V0Z" transform="translate(0.0102539 8.83908)" fill="#FF4B55"></path>
        <path d="M1.32746 0H0L7.7824 5.14183C7.96379 5.12217 8.10694 4.97142 8.10694 4.78158V4.47917L1.32746 0Z" transform="translate(12.8522 8.83908)" fill="#FF4B55"></path>
        <path d="M0 0.738L6.62253 5.11358H7.94999L0.210532 0C0.0869064 0.0584583 0 0.184083 0 0.331958V0.738Z" transform="translate(0 0.0473747)" fill="#FF4B55"></path>
        <path d="M1.32746 5.14942L8.66015 0.304542C8.62969 0.132792 8.48887 0 8.31133 0H7.79362L0 5.14942H1.32746Z" transform="translate(12.2864 0.0115433)" fill="#FF4B55"></path>
    </symbol>
    <symbol id="logo" viewBox="0 0 94 80">
        <path d="M35.8915 35.9704L33.549 25.1468L32.8882 24.4888V36.4838C32.8882 38.7195 31.3797 39.72 29.8844 39.72C28.5611 39.72 27.2937 38.9463 26.6542 37.7485L25.1786 34.9764V38.8033C25.1786 39.1063 24.9332 39.3512 24.6307 39.3512H19.9441C19.6416 39.3512 19.3962 39.1063 19.3962 38.8033V26.2433C19.3962 24.2597 20.9485 23.2219 22.4822 23.2219C23.9162 23.2219 25.1901 24.0395 25.8066 25.3551L27.0827 28.0225V23.9003C27.0827 23.5973 27.3277 23.3523 27.6307 23.3523H31.7474L27.091 18.7123C27.0301 18.7474 26.9633 18.7737 26.8877 18.7737H25.8389C25.6121 18.7737 25.4279 18.5896 25.4279 18.3627V17.0548L23.9545 15.5868L22.9184 18.5003C22.8597 18.6647 22.7047 18.7737 22.531 18.7737H21.3364C21.1633 18.7737 21.0082 18.6647 20.9496 18.5014L18.9901 13.0241C18.9447 12.8981 18.9638 12.7584 19.0411 12.6488C19.1184 12.5397 19.2433 12.4745 19.377 12.4745H20.5748C20.7501 12.4745 20.9063 12.5858 20.9633 12.7523L21.9578 15.6504L22.4668 14.1052L8.31123 0C8.31123 0 10.8893 5.15945 12.4066 14.4L12.4356 14.2882C12.4827 14.1074 12.6466 13.9814 12.8329 13.9814H13.8455C14.0334 13.9814 14.1978 14.1096 14.2438 14.2921L14.5321 15.4312L14.8696 14.2773C14.92 14.1019 15.0811 13.9814 15.263 13.9814H16.2981C16.4296 13.9814 16.5529 14.0438 16.6307 14.1507C16.7079 14.2564 16.7293 14.3929 16.6899 14.5184L15.4142 18.4888C15.3595 18.6586 15.2011 18.7737 15.0225 18.7737H14.0153C13.829 18.7737 13.6663 18.6488 13.6181 18.469L13.3364 17.4121L13.0581 18.4679C13.0438 18.5233 13.0148 18.571 12.9808 18.6142C13.3934 22.3753 13.6 26.6471 13.4247 31.3896H17.9025C18.2049 31.3896 18.4504 31.6345 18.4504 31.9375V34.8192C18.4504 35.1222 18.2049 35.3671 17.9025 35.3671H13.1496C11.1216 55.6521 0 71.2088 0 71.2088L35.8915 35.9704Z" transform="translate(47.1415 8.40241)" fill="#008F36"></path>
        <path d="M11.1304 41.6247L13.52 43.9447C13.7112 44.1304 13.7414 44.4263 13.5912 44.6466C12.3573 46.4608 10.1096 47.5879 7.72438 47.5879C4.70739 47.5879 1.46082 45.6542 1.46082 41.4093C1.46082 37.3814 4.6104 35.2082 7.57369 35.2082C10.2981 35.2082 12.6268 36.8899 13.6515 39.5984C13.7463 39.851 13.6438 40.1348 13.4088 40.2679L11.0871 41.5868C11.1019 41.5984 11.1167 41.6115 11.1304 41.6247ZM20.2203 47.5337C16.2175 47.5337 14.1233 44.3447 14.1233 41.1945C14.1233 39.6082 14.6488 38.137 15.6027 37.051C16.8899 35.5863 18.8405 34.9425 21.1715 35.2252V31.5912C21.1715 31.2882 21.4164 31.0433 21.7195 31.0433H22.9501C25.5775 14.3753 35.3934 0 35.3934 0L0 35.429C0.521096 36.5079 0.837808 37.754 0.896438 39.1359C0.896986 40.7068 0.58411 42.0964 0.00876712 43.2641L27.3693 70.7195C27.3693 70.7195 23.7063 61.9501 22.6121 47.1885C21.9079 47.4137 21.1145 47.5337 20.2203 47.5337Z" transform="translate(12.2338 0.547836)" fill="#008F36"></path>
        <path d="M0 1.05808C0 1.54027 0.29589 2.03945 0.791781 2.03945C1.45863 2.03342 1.92 1.55507 1.92 0.876712V0.0630137C1.9063 0.0613699 1.89151 0.0591781 1.87781 0.0569863C1.67068 0.0191781 1.47397 0 1.29479 0C0.0931507 0 0 0.809863 0 1.05808Z" transform="translate(31.4854 40.8222)" fill="#008F36"></path>
        <path class="is-colored" d="M0 14.903V0H5.36603C9.74192 0.0317808 12.4016 3.17096 12.5836 7.40438C12.5836 11.8307 9.91781 14.926 5.36603 14.926V10.5682C8.25534 10.6438 9.06904 4.40548 4.71014 4.40548V14.903H0Z" transform="translate(0 32.3027)" fill="#1A171B"></path>
        <path class="is-colored" d="M11.1299 4.03584L5.76384 7.08241L4.54466 4.87967L6.58356 3.70762C5.62904 2.49885 3.49808 3.73995 3.85918 5.76515C4.17479 7.53611 6.50466 8.84241 8.74027 6.26159L11.1299 8.58214C8.21973 12.8605 0 12.1816 0 5.65282C0 -0.809644 8.75726 -2.23923 11.1299 4.03584Z" transform="translate(14.2426 36.3039)" fill="#1A171B"></path>
        <path class="is-colored" d="M7.04802 0H11.2656V8.69315C11.2656 12.6384 9.85076 15.3951 5.54884 15.3951C-1.95856 15.3951 -2.06376 3.02356 6.55597 4.19397V8.2011C3.26172 7.60493 3.54939 11.2871 5.38391 11.2707C6.36418 11.2619 7.04802 10.5216 7.04802 9.56V0Z" transform="translate(26.9053 32.1388)" fill="#1A171B"></path>
        <path class="is-colored" d="M6.86521 10.8729C3.23397 11.537 0 9.28329 0 5.53041C0 2 2.47945 0 5.88164 0C9.33863 0 11.9036 2.63288 11.9036 6.06904V10.8729H7.54466V5.50685C7.54466 4.47726 6.79014 3.95178 5.83452 3.96C3.36877 3.98137 4.07726 8.14301 6.86521 6.74849V10.8729Z" transform="translate(39.4212 36.3328)" fill="#1A171B"></path>
        <path class="is-colored" d="M0 14.903H4.49918V0H0V14.903Z" transform="translate(52.5814 32.3025)" fill="#1A171B"></path>
        <path class="is-colored" d="M0 2.88219H5.88055V0H0V2.88219Z" transform="translate(59.1633 40.3397)" fill="#1A171B"></path>
        <path class="is-colored" d="M0 15.0332V2.47323C0 -0.49389 4.09863 -0.887862 5.36603 1.81734L7.68603 6.66721V0.13022H12.3962V12.7138C12.3962 16.0327 8.50082 16.1708 7.19397 13.7204L4.68658 9.01132V15.0332H0Z" transform="translate(67.0858 32.1725)" fill="#1A171B"></path>
        <path class="is-colored" d="M0 0H4.66301L6.18575 9.04493L7.68493 0H12.56L9.53644 13.2395C8.94247 15.8389 3.42356 15.8148 2.83507 13.0986L0 0Z" transform="translate(80.9814 32.3025)" fill="#1A171B"></path>
        <path class="is-colored" d="M47.1759 5.47726H46.1282V3.4537C46.1282 3.0252 46.1057 2.74904 46.0608 2.62411C45.8274 1.98411 44.8783 2.16657 44.68 2.77041C44.6257 2.93479 44.5978 3.23835 44.5978 3.68219V5.47726H43.5512V1.50685H44.5216V2.08931C44.8696 1.64493 45.3074 1.42301 45.8372 1.42301C46.4257 1.42301 46.9748 1.69205 47.1178 2.30794C47.1578 2.47233 47.1759 2.7063 47.1759 3.0126V5.47726ZM38.7803 3.49973C38.7803 4.10959 39.0614 4.71945 39.7496 4.71945C40.4411 4.71945 40.7151 4.10028 40.7151 3.49206C40.7151 2.88822 40.4312 2.27945 39.7496 2.27945C39.0614 2.27945 38.7803 2.88986 38.7803 3.49973ZM37.7003 3.44383C37.7003 2.25534 38.5841 1.42301 39.743 1.42301C40.9496 1.42301 41.794 2.28767 41.794 3.48822C41.794 4.67781 40.9545 5.57698 39.7507 5.57698C38.4389 5.57698 37.7003 4.69041 37.7003 3.44383ZM34.8729 5.47726H35.9206V1.50685H34.8729V5.47726ZM34.8729 0.970959H35.9206V0H34.8729V0.970959ZM29.2964 4.36055L30.3529 4.2C30.3967 4.40219 30.4877 4.55616 30.6257 4.66137C30.9019 4.87507 31.5342 4.87178 31.8137 4.66959C32.183 4.38849 31.8531 4.12822 31.5255 4.05151C30.6784 3.86466 30.1408 3.6937 29.914 3.53918C29.2931 3.11452 29.2964 2.25315 29.8499 1.77425C30.3797 1.31726 31.7567 1.30904 32.3238 1.68932C32.5874 1.86795 32.7693 2.13041 32.8701 2.47781L31.8822 2.66192C31.6871 1.94247 30.4137 2.11014 30.4137 2.50904C30.4137 2.82247 31.2838 2.94685 31.5019 2.99616C32.2148 3.15781 33.0071 3.37315 33.0071 4.24548C33.0071 5.22795 32.0329 5.57699 31.2005 5.57699C30.3364 5.57699 29.532 5.26795 29.2964 4.36055ZM26.5989 5.47726H27.6477V1.50685H26.5989V5.47726ZM26.5989 0.970959H27.6477V0H26.5989V0.970959ZM22.0964 5.47726L20.137 0H21.3348L22.726 4.0537L24.0614 0H25.2389L23.291 5.47726H22.0964ZM12.3994 5.47726L11.1441 1.50685H12.1649L12.9079 4.10904L13.5929 1.50685H14.6055L15.2636 4.10904L16.023 1.50685H17.0581L15.7825 5.47726H14.7753L14.0937 2.92384L13.4203 5.47726H12.3994ZM8.81918 3.15945C8.78795 1.89041 7.24494 1.93205 7.25535 3.15945H8.81918ZM8.75945 4.22301L9.80603 4.39836C9.12109 6.3611 6.15781 5.89973 6.15781 3.52877C6.15781 0.66137 9.92055 0.623561 9.86027 3.80164H7.23616C7.26301 4.88986 8.48109 5.18411 8.75945 4.22301ZM0 5.47726V0H1.07342L3.32767 3.67068V0H4.35288V5.47726H3.24493L1.02521 1.87671V5.47726H0Z" transform="translate(46.3815 21.288)" fill="#1A171B"></path>


            </symbol>
    <symbol id="logo-2" viewBox="0 0 94 80">
            </symbol>

    <symbol id="slider-arrow" class="is-coloring-s" viewBox="0 0 18 34">
        <g fill="none">
            <path d="M0 32L15.3333 16L0 0" transform="translate(1.33337 1)" stroke="white" stroke-linecap="round" stroke-linejoin="round"></path>
        </g>
    </symbol>
    <symbol id="slider-arrow-small" class="is-coloring-s" viewBox="0 0 14 26">
        <g fill="none">
            <path d="M6.25 25L17.75 13L6.25 1" stroke="black" stroke-linecap="round" stroke-linejoin="round"></path>
        </g>
    </symbol>
    <symbol id="play" viewBox="0 0 104 104">
        <g fill="none">
            <circle cx="52" cy="52" r="51.5" fill="white" fill-opacity="0.01" stroke="white" stroke-linecap="round" stroke-linejoin="round"></circle>
            <path d="M41.0501 26L0.5 51.1024V0.897576L41.0501 26Z" transform="translate(38 27)" fill="white" fill-opacity="0.01" stroke="white" stroke-linecap="round" stroke-linejoin="round"></path>
        </g>
    </symbol>
    <symbol id="mail" viewBox="0 0 22 16">
        <g fill="none">
            <path d="M20 0H0V14H20V0Z" transform="translate(1 1)" stroke="white" stroke-linecap="round" stroke-linejoin="round"></path>
            <path d="M0 0L10 6L20 0" transform="translate(1 1)" stroke="white" stroke-linecap="round" stroke-linejoin="round"></path>
        </g>
    </symbol>
    <symbol id="paper-plane" class="is-coloring-s" viewBox="0 0 22 19">
        <g fill="none">
            <path d="M0 -1.73395e-07V6.63636L3.63636 3.40909" transform="translate(5.54541 10.7271)" stroke="black" stroke-miterlimit="10"></path>
            <path d="M11.5909 16.3636L20 0L0 5.45455L11.5909 16.3636Z" transform="translate(1 1)" stroke="black" stroke-miterlimit="10"></path>
            <path d="M15.4545 0L0 9.72727" transform="translate(5.54541 1)" stroke="black" stroke-miterlimit="10"></path>
        </g>
    </symbol>

    <!-- social -->
    <symbol id="vk" class="is-coloring" viewBox="0 0 22 14">
        <g fill="none">
            <path fill-rule="evenodd" clip-rule="evenodd" d="M19.5815 8.99344C19.5815 8.99344 21.3611 10.7851 21.7997 11.6159C21.8123 11.6336 21.817 11.6496 21.8217 11.656C21.9994 11.9608 22.0449 12.2014 21.9553 12.3778C21.8076 12.6713 21.3045 12.8189 21.1331 12.8317C21.1331 12.8317 18.0786 12.8317 17.9906 12.8317C17.7705 12.8317 17.3146 12.774 16.7612 12.3842C16.3368 12.0827 15.917 11.5838 15.5083 11.0978C14.8983 10.3761 14.3701 9.75051 13.8387 9.75051C13.7711 9.75051 13.7035 9.76174 13.6406 9.78419C13.2366 9.91572 12.7241 10.5012 12.7241 12.065C12.7241 12.5542 12.3468 12.8333 12.0796 12.8333C12.0796 12.8333 10.7087 12.8333 10.6396 12.8333C10.1491 12.8333 7.59445 12.6585 5.33224 10.2221C2.55595 7.2387 0.0626455 1.2543 0.0406365 1.20137C-0.116571 0.814815 0.208848 0.604695 0.562565 0.604695H3.73815C4.16419 0.604695 4.30096 0.867746 4.39842 1.10353C4.50847 1.37139 4.9235 2.45246 5.60263 3.66827C6.7078 5.64596 7.38851 6.45115 7.93087 6.45115C8.03149 6.45115 8.12895 6.42388 8.22013 6.37256C8.92914 5.97317 8.79709 3.39399 8.76564 2.86148C8.76564 2.76043 8.76407 1.70822 8.4025 1.20297C8.14153 0.83727 7.69978 0.697725 7.43253 0.644794C7.50327 0.540537 7.65576 0.378536 7.8507 0.282298C8.33647 0.0352873 9.21211 0 10.083 0H10.5672C11.5121 0.0128317 11.7573 0.0753864 12.0984 0.163605C12.7886 0.332021 12.8027 0.789151 12.7414 2.345C12.7241 2.78769 12.7053 3.28973 12.7053 3.87839C12.7053 4.0051 12.7005 4.14465 12.7005 4.28901C12.6785 5.08457 12.6534 5.9844 13.2036 6.35331C13.2759 6.39822 13.3561 6.42388 13.441 6.42388C13.6328 6.42388 14.2066 6.42388 15.7614 3.70195C16.4452 2.50058 16.9719 1.08268 17.008 0.976815C17.0395 0.919073 17.1322 0.749052 17.2407 0.68329C17.3287 0.630359 17.4419 0.620735 17.5017 0.620735H21.2353C21.6441 0.620735 21.9208 0.68329 21.9726 0.842082C22.0622 1.09711 21.9553 1.87504 20.2496 4.22645C19.9604 4.61621 19.7104 4.95626 19.4903 5.25299C17.9434 7.3189 17.9434 7.42476 19.5815 8.99344Z" transform="translate(0 0.583008)" fill="#D8DADE"></path>
        </g>
    </symbol>
    <symbol id="fb" class="is-coloring" viewBox="0 0 23 22">
        <g fill="none">
            <path d="M0 0V22H11.7163V13.5019H8.85223V10.0327H11.7163V7.11919C11.7163 5.00029 13.434 3.2826 15.5529 3.2826H18.5471V6.40217H16.4046C15.7314 6.40217 15.1855 6.94801 15.1855 7.62129V10.0327H18.4933L18.0362 13.5019H15.1855V22H22V0H0Z" transform="translate(0.334351)" fill="#D8DADE"></path>
        </g>
    </symbol>
    <symbol id="ok" class="is-coloring" viewBox="0 0 15 22">
        <g fill="none">
            <path fill-rule="evenodd" clip-rule="evenodd" d="M6.8407 12.4668C10.2241 12.4668 12.9597 9.68018 12.9597 6.2334C12.9597 2.78662 10.2241 0 6.8407 0C3.45715 0 0.721558 2.78662 0.721558 6.2334C0.721558 9.68018 3.45715 12.4668 6.8407 12.4668ZM6.83923 3.66699C8.20703 3.66699 9.35889 4.84033 9.35889 6.23389C9.35889 7.62695 8.20703 8.80029 6.83923 8.80029C5.47144 8.80029 4.31958 7.62695 4.31958 6.23389C4.31958 4.84033 5.47144 3.66699 6.83923 3.66699ZM11.4463 11.3662C11.6624 11.293 11.8783 11.2197 12.0942 11.2197C12.9581 11.2197 13.678 11.9531 13.75 12.9062C13.75 13.6396 13.39 14.2998 12.7422 14.7397C11.9503 15.2529 10.8704 15.7666 9.93457 16.0596C9.71863 16.0596 9.50256 16.1333 9.28662 16.2065L12.0942 18.9932C12.7422 19.7266 12.7422 20.8262 12.0942 21.4863C11.7343 21.853 11.3744 21.9995 10.8704 21.9995C10.3665 21.9995 9.93457 21.7798 9.64661 21.4863L6.83899 18.4795L4.03137 21.4863C3.38354 22.1465 2.23169 22.1465 1.58374 21.4863C0.935913 20.7529 0.935913 19.6528 1.58374 18.9932L4.39136 16.1333C4.177 16.1333 3.96265 16.0605 3.74817 15.9878L3.74341 15.9863C2.80762 15.6929 1.94373 15.2529 1.15186 14.7397C0.575928 14.373 0 13.6396 0 12.833C0 11.9531 0.719849 11.2197 1.58374 11.2197C1.79968 11.2197 2.01575 11.293 2.23169 11.3662C2.44763 11.5132 2.7356 11.6597 2.95154 11.8062C4.24744 12.5396 5.39917 13.1997 6.83899 13.1997C8.26453 13.1997 9.40784 12.5522 10.688 11.8281L10.7264 11.8062C10.8337 11.7334 10.959 11.6606 11.0842 11.5874C11.2109 11.5137 11.3376 11.4399 11.4463 11.3662Z" transform="translate(0.665283)" fill="#D8DADE"></path>
        </g>
    </symbol>
    <symbol id="in" class="is-coloring" viewBox="0 0 23 22">
        <g fill="none">
            <path fill-rule="evenodd" clip-rule="evenodd" d="M19.7786 15.4402C19.7786 17.8365 17.836 19.7791 15.4397 19.7791H6.55085C4.15455 19.7791 2.21191 17.8365 2.21191 15.4402V6.55139C2.21191 4.15509 4.15455 2.2124 6.55085 2.2124H15.4397C17.836 2.2124 19.7786 4.15509 19.7786 6.55139V15.4402ZM15.4401 0H6.55131C2.93882 0 0 2.93882 0 6.55131V15.4401C0 19.0524 2.93882 21.9914 6.55131 21.9914H15.4401C19.0524 21.9914 21.9914 19.0524 21.9914 15.4401V6.55131C21.9914 2.93882 19.0524 0 15.4401 0Z" transform="translate(0.75)" fill="#D8DADE"></path>
            <path fill-rule="evenodd" clip-rule="evenodd" d="M5.68748 9.16321C3.76801 9.16321 2.21191 7.60734 2.21191 5.6879C2.21191 3.76842 3.76801 2.2124 5.68748 2.2124C7.607 2.2124 9.16284 3.76842 9.16284 5.6879C9.16284 7.60734 7.607 9.16321 5.68748 9.16321ZM5.68787 0C2.55165 0 0 2.55165 0 5.68787C0 8.8239 2.55165 11.3755 5.68787 11.3755C8.8241 11.3755 11.3755 8.8241 11.3755 5.68787C11.3755 2.55165 8.8241 0 5.68787 0Z" transform="translate(6.05762 5.30811)" fill="#D8DADE"></path>
            <path fill-rule="evenodd" clip-rule="evenodd" d="M1.36295 0C0.610363 0 0 0.610163 0 1.36295C0 2.11554 0.610363 2.72585 1.36295 2.72585C2.11569 2.72585 2.72585 2.11554 2.72585 1.36295C2.72585 0.610163 2.11569 0 1.36295 0Z" transform="translate(16.0807 3.98779)" fill="#D8DADE"></path>
        </g>
    </symbol>
    <symbol id="ut" class="is-coloring" viewBox="0 0 22 22">
        <path fill="#D8DADE" fill-rule="nonzero" d="M21.772 6.455S22 8.309 22 10.164v1.709c0 1.818-.228 3.672-.228 3.672s-.227 1.564-.872 2.255c-.834.873-1.783.91-2.2.945C15.628 19 11 19 11 19s-5.728-.036-7.472-.218c-.494-.11-1.594-.073-2.428-.982-.645-.69-.872-2.254-.872-2.254S0 13.727 0 11.873v-1.71C0 8.31.228 6.456.228 6.456S.418 4.89 1.1 4.2c.834-.873 1.783-.91 2.2-.945C6.372 3.036 11 3 11 3s4.628.036 7.7.255c.417.036 1.366.036 2.2.945.645.69.872 2.255.872 2.255zm-13.427.872v7.891l7.207-3.854-7.207-4.037z"></path>
    </symbol>
    <!-- social -->

    <!-- plyr -->
    <symbol id="plyr-play" viewBox="0 0 104 104">
        <g>
            <circle fill="none" cx="52" cy="52" r="51.5" fill-opacity="0.01" stroke="white" stroke-linecap="round" stroke-linejoin="round"></circle>
            <path class="is-colored" d="M41.0501 26L0.5 51.1024V0.897576L41.0501 26Z" transform="translate(38 27)" fill="white" stroke="white" stroke-linecap="round" stroke-linejoin="round"></path>
        </g>
    </symbol>
    <symbol id="plyr-play" viewBox="0 0 13 16">
        <g fill="none">
            <path fill-rule="evenodd" clip-rule="evenodd" d="M0 16V0L13 8L0 16Z" fill="white"></path>
        </g>
    </symbol>
    <symbol id="plyr-pause" viewBox="0 0 12 16">
        <g fill="none">
            <rect width="4" height="16" fill="white"></rect>
            <rect width="4" height="16" transform="translate(8)" fill="white"></rect>
        </g>
    </symbol>
    <symbol id="plyr-volume" viewBox="0 0 22 18">
        <g fill="none">
            <path fill-rule="evenodd" clip-rule="evenodd" d="M8.93617 13.3333L3.57447 8.88889H0V4.44444H3.57447L8.93617 0V13.3333Z" transform="translate(0 2.33325)" fill="white"></path>
            <path d="M0 0C3.44043 4.8 3.44043 11.2 0 16" transform="translate(18.0063 1)" stroke="white" stroke-width="0.888889"></path>
            <path d="M0.0446809 0C1.38511 1.82222 2.1 4.04444 2.1 6.31111C2.1 8.57778 1.38511 10.8 0 12.6222" transform="translate(14.8787 2.68896)" stroke="white" stroke-width="0.888889"></path>
            <path d="M0 0C1.92128 2.84444 1.92128 6.53333 0.0446809 9.37778" transform="translate(11.9745 4.28882)" stroke="white" stroke-width="0.888889"></path>
        </g>
    </symbol>
    <symbol id="plyr-muted" viewBox="0 0 20 14">
        <g fill="none">
            <path fill-rule="evenodd" clip-rule="evenodd" d="M8.93617 13.3333L3.57447 8.88889H0V4.44444H3.57447L8.93617 0V13.3333Z" transform="translate(0 0.333252)" fill="white"></path>
            <path d="M0 0L7.5 7.5" transform="translate(12 3)" stroke="white"></path>
            <path d="M0 0L7.5 7.5" transform="translate(12 10.5) rotate(-90)" stroke="white"></path>
        </g>
    </symbol>
    <symbol id="plyr-exit-fullscreen" viewBox="0 0 22 22">
        <g fill="none">
            <path opacity="0.8" fill-rule="evenodd" clip-rule="evenodd" d="M14 0H15V7H22V8H15H14V7V0ZM15 14H14V15V22H15V15H22V14H15ZM7 14H0V15H7V22H8V15V14H7ZM7 0H8V7V8H7H0V7H7V0Z" fill="white"></path>
        </g>
    </symbol>
    <symbol id="plyr-enter-fullscreen" viewBox="0 0 22 22">
        <g fill="none">
            <path opacity="0.8" fill-rule="evenodd" clip-rule="evenodd" d="M1 0H0V1V8H1V1H8V0H1ZM0 14H1V21H8V22H1H0V21V14ZM21 0H14V1H21V8H22V1V0H21ZM21 14H22V21V22H21H14V21H21V14Z" fill="white"></path>
        </g>
    </symbol>
    <!-- end plyr -->

    <symbol id="speech" viewBox="0 0 18 18">
        <g fill="none">
            <path d="M12.1049 14.8455C13.2531 15.6229 14.6137 16.0258 16 15.9987C15.2928 15.0799 14.6855 14.0883 14.1883 13.0407C15.4516 11.4902 16.0876 9.52241 15.9708 7.52583C15.854 5.52925 14.993 3.649 13.5576 2.2563C12.1223 0.863596 10.217 0.059652 8.21786 0.0031887C6.21873 -0.0532746 4.27108 0.641846 2.75943 1.95132C1.24777 3.26079 0.281973 5.08943 0.0527095 7.07624C-0.176554 9.06305 0.347377 11.0636 1.52106 12.683C2.69475 14.3023 4.4329 15.4228 6.39234 15.8232C8.35179 16.2235 10.3901 15.8747 12.1049 14.8455V14.8455Z" transform="translate(1 1)" stroke="black" stroke-linecap="round" stroke-linejoin="round"></path>
            <path d="M0.696792 1.39363C1.08162 1.39363 1.39358 1.08165 1.39358 0.696815C1.39358 0.311974 1.08162 0 0.696792 0C0.311964 0 0 0.311974 0 0.696815C0 1.08165 0.311964 1.39363 0.696792 1.39363Z" transform="translate(5 8)" stroke="black" stroke-linecap="round" stroke-linejoin="round"></path>
            <path d="M0.696792 1.39363C1.08162 1.39363 1.39358 1.08165 1.39358 0.696815C1.39358 0.311974 1.08162 0 0.696792 0C0.311964 0 0 0.311974 0 0.696815C0 1.08165 0.311964 1.39363 0.696792 1.39363Z" transform="translate(8 8)" stroke="black" stroke-linecap="round" stroke-linejoin="round"></path>
            <path d="M0.696792 1.39363C1.08162 1.39363 1.39358 1.08165 1.39358 0.696815C1.39358 0.311974 1.08162 0 0.696792 0C0.311964 0 0 0.311974 0 0.696815C0 1.08165 0.311964 1.39363 0.696792 1.39363Z" transform="translate(12 8)" stroke="black" stroke-linecap="round" stroke-linejoin="round"></path>
        </g>
    </symbol>

    <!-- format -->
    <symbol id="format__pdf" class="is-coloring" viewBox="0 0 16 16">
        <g fill="none">
            <path fill-rule="evenodd" clip-rule="evenodd" d="M1.03256 16H1.03205C0.626228 16 0.283112 15.7782 0.115378 15.4081C-0.147695 14.8289 0.0490998 14.0142 0.603795 13.3805C1.10037 12.8131 2.15419 12.1972 3.82184 11.4997C4.19708 10.7819 4.582 9.96462 4.96692 9.06732C5.51703 7.78356 5.9565 6.6079 6.27413 5.56989C5.74849 4.49823 4.53051 1.76299 5.22286 0.724977C5.52519 0.270718 5.98913 0 6.46378 0C6.85686 0 7.21273 0.187118 7.46611 0.526665C8.08963 1.36177 8.05445 3.06967 7.36669 5.47199C8.16764 7.02239 9.12969 8.39689 10.0566 9.31816C10.4955 9.08108 11.4316 8.75838 13.2721 8.75838C14.6048 8.75838 15.2013 9.43798 15.2013 10.1115C15.2013 10.889 14.41 11.7154 12.9437 11.7154C12.465 11.7154 11.9511 11.6246 11.4168 11.4462C10.91 11.2774 10.3813 10.9619 9.84294 10.5061C8.95787 10.764 6.59634 11.4758 4.54937 12.3032C3.23809 14.7224 2.02367 16 1.03256 16ZM2.95207 13.0124C2.00175 13.485 1.56737 13.8271 1.37058 14.0519C1.00605 14.469 0.993306 14.8707 1.0397 14.9798C1.11566 14.9712 1.7759 14.8468 2.95207 13.0124ZM6.93946 6.8154C6.65446 7.63725 6.30829 8.5259 5.90399 9.46858C5.6817 9.98708 5.45942 10.4801 5.23815 10.944C6.67027 10.4133 8.10544 9.96209 9.00274 9.69188C8.29255 8.91592 7.58031 7.92275 6.93946 6.8154ZM10.9299 10.0584C11.2123 10.2527 11.4831 10.3939 11.739 10.4796C12.1698 10.6228 12.5751 10.6957 12.9437 10.6957C13.7676 10.6957 14.1816 10.321 14.1816 10.1115C14.1816 9.9733 13.8997 9.77804 13.2721 9.77804C12.0801 9.77804 11.35 9.92385 10.9299 10.0584ZM6.46378 1.01966C6.35825 1.01966 6.19612 1.10328 6.07122 1.29038C5.94682 1.4933 6.0447 2.44821 6.6825 4.00268C7.01593 2.40284 6.90785 1.4831 6.64936 1.13641C6.56167 1.01966 6.49029 1.01966 6.46378 1.01966Z" fill="#FF0000"></path>
        </g>
    </symbol>
    <!-- end format -->

    <symbol id="close" class="is-coloring-s" viewBox="0 0 14 14">
        <g fill="none">
            <path d="M0 12L12 0" transform="translate(1 1)" stroke="black" stroke-linecap="round" stroke-linejoin="round"></path>
            <path d="M0 12L12 0" transform="translate(13 1) scale(-1 1)" stroke="black" stroke-linecap="round" stroke-linejoin="round"></path>
        </g>
    </symbol>
    <symbol id="to-top" viewBox="0 0 38 21">
        <defs>
            <filter id="dropshadow" height="130%">
                <feGaussianBlur in="SourceAlpha" stdDeviation="3"></feGaussianBlur>
                <feOffset dx="2" dy="2" result="offsetblur"></feOffset>
                <feComponentTransfer>
                    <feFuncA type="linear" slope="0.2"></feFuncA>
                </feComponentTransfer>
                <feMerge>
                    <feMergeNode></feMergeNode>
                    <feMergeNode in="SourceGraphic"></feMergeNode>
                </feMerge>
            </filter>
        </defs>
        <polygon points="58.263,0.056 100,41.85 58.263,83.641 30.662,83.641 62.438,51.866 0,51.866 0,31.611 62.213,31.611 30.605,0 58.263,0.056" fill="#EEE" filter="url(#dropshadow)"></polygon>
    </symbol>

    <symbol id="minus" viewBox="0 0 11 1">
        <g fill="none">
            <rect width="11" height="1" fill="black"></rect>
        </g>
    </symbol>
    <symbol id="plus" viewBox="0 0 11 11">
        <g fill="none">
            <path fill-rule="evenodd" clip-rule="evenodd" d="M6 0H5V5H0V6H5V11H6V6H11V5H6V0Z" fill="black"></path>
        </g>
    </symbol>
    <symbol id="trash" viewBox="0 0 14 18">
        <g fill="none">
            <rect width="13.913" height="16" fill="black" fill-opacity="0" transform="translate(0 1)"></rect>
            <rect width="13.913" height="16" fill="black" fill-opacity="0" transform="translate(0 1)"></rect>
            <path d="M12.5218 3.08698L11.9583 14.3565C11.9226 15.0702 11.6137 15.7427 11.0957 16.2348C10.5777 16.7269 9.89021 17.0009 9.1757 17H4.73397C4.01946 17.0009 3.33198 16.7269 2.81397 16.2348C2.29595 15.7427 1.98708 15.0702 1.95136 14.3565L1.39136 3.08698" stroke="black" stroke-miterlimit="10"></path>
            <path d="M0 3.08698H13.913" stroke="black" stroke-miterlimit="10"></path>
            <path d="M5.04346 5.86957L5.39128 13.5217" stroke="black" stroke-miterlimit="10"></path>
            <path d="M8.86955 5.86957L8.52173 13.5217" stroke="black" stroke-miterlimit="10"></path>
            <path d="M4.17395 3.08696L4.55308 1.95304C4.64504 1.67597 4.82183 1.43484 5.05842 1.26379C5.29501 1.09275 5.5794 1.00046 5.87134 1H8.0383C8.33024 1.00046 8.61463 1.09275 8.85122 1.26379C9.08781 1.43484 9.2646 1.67597 9.35656 1.95304L9.73917 3.08696" stroke="black" stroke-miterlimit="10"></path>
        </g>
    </symbol>
    <symbol id="catalog" viewBox="0 0 12 12">
        <g fill="none">
            <rect width="12" height="12" fill="black" fill-opacity="0"></rect>
            <rect x="0.5" y="0.5" width="4" height="4" stroke="black"></rect>
            <rect x="7.5" y="0.5" width="4" height="4" stroke="black"></rect>
            <rect x="0.5" y="7.5" width="4" height="4" stroke="black"></rect>
            <rect x="7.5" y="7.5" width="4" height="4" stroke="black"></rect>
        </g>
    </symbol>
    <symbol id="printer" viewBox="0 0 25 23">
        <g fill="none">
            <rect width="23" height="21" fill="black" fill-opacity="0" transform="translate(1 0.999756)"></rect>
            <rect width="23" height="21" fill="black" fill-opacity="0" transform="translate(1 0.999756)"></rect>
            <path d="M6 4.99976V0.999756H19V4.99976" stroke="#636466" stroke-width="2" stroke-miterlimit="10"></path>
            <path d="M19 13.9998H6V21.9998H19V13.9998Z" stroke="#636466" stroke-width="2" stroke-miterlimit="10"></path>
            <path d="M6 18H4C2.35 18 1 16.65 1 15V5H24V15C24 16.65 22.65 18 21 18H19" stroke="#636466" stroke-width="2" stroke-miterlimit="10"></path>
            <path d="M21.5 7.99976C21.5 8.2759 21.2761 8.49976 21 8.49976C20.7239 8.49976 20.5 8.2759 20.5 7.99976C20.5 7.72361 20.7239 7.49976 21 7.49976C21.2761 7.49976 21.5 7.72361 21.5 7.99976Z" stroke="#636466"></path>
        </g>
    </symbol>
</svg>
